<svg height="512" viewBox="0 0 512 512" width="512" xmlns="http://www.w3.org/2000/svg"><g id="Corona_Virus_Symptoms_Shortness_of_breath" data-name="Corona Virus Symptoms Shortness of breath"><g id="Glyph"><path d="m296 512h-56v-7.208l-15.845-79.223 24.354-68.378c5.156-13.749 30.3-.416 23.491 26.809l-8 40 8 24c0-40 40-40 40 0 0 45.568 0 40-16 59.26z"/><path d="m428.73 134.334c-1.871-40.816-13.067-75.09-31.527-96.508-14.182-16.455-31.621-23.9-49.565-21.3-67.074-69.7-213.4 105.944-251.693 68.289-5.2-6.029-15.443-1.26-13.707 7.065 7.469 35.833 30.973 80.071 67.771 93.129 3.644 12.473 8.13 28.123 13.621 47.837-13.67 36.08-17.35 37.62-14.6 43.22 2.67 5.45 7.16 3.99 30.09 11.25 8.02 21.87 6.17 41.03 25.72 51.93a35.727 35.727 0 0 0 27.37 3.19l50.02-14.21 8.08 28.45c-.86 2.731-2.366 7.718-4.209 14.6 101.389-44.985 112.287-73.249 116.224-76.067-.969-3.4-2.06-7.191-3.292-11.433 3.19-3.826 33.074-75.736 29.697-149.442zm-220.73 129.666a8 8 0 1 1 8-8 8 8 0 0 1 -8 8zm32 0a8 8 0 1 1 8-8 8 8 0 0 1 -8 8zm32 8a8 8 0 1 1 8-8 8 8 0 0 1 -8 8zm24 16a8 8 0 1 1 8-8 8 8 0 0 1 -8 8zm24 24a8 8 0 1 1 8-8 8 8 0 0 1 -8 8z"/><circle cx="8" cy="328" r="8"/><circle cx="40" cy="328" r="8"/><circle cx="72" cy="328" r="8"/><circle cx="168" cy="360" r="8"/><path d="m136 304h-72a32 32 0 0 1 0-64c30.515 0 40.8 40 24 40a8 8 0 0 1 -8-8 16 16 0 1 0 -16 16h72a8 8 0 0 1 0 16z"/><path d="m64 416a32 32 0 0 1 0-64h72a8 8 0 0 1 0 16h-72a16 16 0 1 0 16 16 8 8 0 0 1 8-8c16.807 0 6.5 40-24 40z"/><path d="m168 336h-64a8 8 0 0 1 0-16h64a8 8 0 0 1 0 16z"/><path d="m409.061 312.15c-29.774 35.888-97.609 65.406-121.576 76.011l-2.953 14.762c20.859-5.204 43.468 11.649 43.468 45.077 0 41.093-.006 46.51-15.032 64h30.767v-79.97a55.971 55.971 0 0 1 55.765-56.23h.237a56.062 56.062 0 0 1 56 55.767v80.433h56.159c2.314-87.755-32.977-146.693-102.835-199.85z"/></g></g></svg>