<svg id="Layer_1" enable-background="new 0 0 512 512" height="512" viewBox="0 0 512 512" width="512" xmlns="http://www.w3.org/2000/svg"><g><ellipse cx="165.668" cy="51.74" rx="51.74" ry="51.739" transform="matrix(.331 -.944 .944 .331 62.008 190.942)"/><path d="m334.78 190.659h23.108c7.002-25.332 25.905-45.767 50.302-54.865-13.597-19.529-36.202-32.315-61.869-32.315-25.65 0-48.248 12.788-61.843 32.315 24.397 9.098 43.3 29.534 50.302 54.865z"/><ellipse cx="346.334" cy="51.74" rx="51.74" ry="51.739" transform="matrix(.331 -.944 .944 .331 182.873 361.424)"/><path d="m165.655 424.82c-41.669 0-75.321 33.718-75.321 75.32v.013c0 6.546 5.307 11.847 11.853 11.847h126.96c6.546 0 11.853-5.314 11.853-11.86.001-41.61-33.651-75.32-75.345-75.32z"/><ellipse cx="165.668" cy="373.08" rx="51.74" ry="51.739" transform="matrix(.331 -.944 .944 .331 -241.219 405.917)"/><path d="m346.322 424.82c-41.669 0-75.321 33.718-75.321 75.32v.013c0 6.546 5.307 11.847 11.853 11.847h126.96c6.546 0 11.853-5.314 11.853-11.86 0-41.61-33.652-75.32-75.345-75.32z"/><path d="m384.928 212.407c0 28.525 23.204 51.733 51.727 51.739-.001 0-.003 0-.005 0-22.994 0-43.547 10.275-57.341 26.478l82.776 60.702h38.065c6.54 0 11.85-5.31 11.85-11.86 0-41.598-33.637-75.307-75.325-75.32 28.526-.004 51.732-23.213 51.732-51.739 0-28.529-23.21-51.74-51.74-51.74s-51.739 23.21-51.739 51.74z"/><path d="m505.87 420.637-481.998-353.465c-6.681-4.899-16.067-3.455-20.967 3.226-4.899 6.68-3.455 16.067 3.226 20.966l481.998 353.466c6.681 4.899 16.067 3.455 20.967-3.226 4.898-6.681 3.454-16.068-3.226-20.967z"/><path d="m385.533 406.793-83.146-60.974c-4.932 7.922-7.792 17.262-7.792 27.261 0 28.529 23.21 51.74 51.739 51.74 15.658 0 29.703-7.001 39.199-18.027z"/><path d="m302.775 234.499c3.179-6.704 4.965-14.193 4.965-22.092 0-28.529-23.21-51.74-51.74-51.74-13.542 0-25.88 5.236-35.111 13.782z"/><path d="m211.154 278.916c-6.583 4.881-12.34 10.809-17.024 17.54 24.41 9.09 43.34 29.53 50.33 54.87h23.08c2.31-8.373 5.93-16.207 10.615-23.277z"/><path d="m133.752 110.549 62.685 45.969c8.552-9.114 19.16-16.276 31.086-20.724-13.597-19.529-36.202-32.315-61.869-32.315-11.414 0-22.221 2.538-31.902 7.07z"/><path d="m137.21 296.466c-13.588-19.537-36.204-32.317-61.87-32.32 26.946-.003 49.134-20.715 51.511-47.053l-71.478-52.417c-18.647 7.828-31.779 26.273-31.779 47.73 0 28.525 23.204 51.733 51.727 51.739h-.001c-41.67 0-75.32 33.72-75.32 75.32v.01c0 6.55 5.31 11.85 11.85 11.85h75.03c6.99-25.339 25.92-45.779 50.33-54.859z"/></g></svg>