<svg id="Layer_1" enable-background="new 0 0 512.02 512.02" height="512" viewBox="0 0 512.02 512.02" width="512" xmlns="http://www.w3.org/2000/svg"><g><path d="m256.002 224.511c-22.06 0-40 17.94-40 40v16c0 22.115 17.991 40 40 40 22.06 0 40-17.94 40-40v-16c0-22.06-17.94-40-40-40z"/><path d="m506.032 212.041-240-193c-5.86-4.71-14.2-4.71-20.06 0l-240 193c-6.88 5.54-7.98 15.61-2.44 22.5 5.54 6.88 15.61 7.98 22.5 2.44 152.693-122.786-217.295 174.735 229.97-184.94 35.887 28.859 215 172.902 229.97 184.94 2.96 2.38 6.5 3.53 10.02 3.53 15.017 0 21.828-18.977 10.04-28.47z"/><path d="m252.875 95.616c-24.068 19.355-176.362 141.83-195.011 156.828-1.18.949-1.862 2.378-1.862 3.893v224.175c0 8.837 7.163 16 16 16h368c8.837 0 16-7.163 16-16v-224.176c0-1.514-.693-2.952-1.873-3.901-33.224-26.725-12.791-10.29-194.989-156.81-1.83-1.472-4.435-1.481-6.265-.009zm77.571 368.895c-2.534 0-4.668-1.896-4.965-4.413l-6.019-50.947c-3.8-32.21-31.06-56.51-63.46-56.64-33.499 0-60.455 24.948-64.02 57.07l-5.606 50.482c-.281 2.532-2.422 4.448-4.969 4.448h-22.139c-2.98 0-5.298-2.59-4.969-5.552l5.874-52.908c3.24-29.128 19.2-53.975 41.994-69.265 2.566-1.721 2.945-5.301.854-7.574-11.799-12.828-19.017-29.939-19.017-48.701v-15.081c0-39.638 31.651-72.529 71.287-72.915 40.025-.39 72.713 32.059 72.713 71.997v16c0 18.872-7.3 36.075-19.221 48.93-2.101 2.266-1.732 5.847.827 7.579 22.451 15.194 38.249 39.699 41.634 68.382l6.32 53.524c.351 2.973-1.972 5.586-4.966 5.586h-22.152z"/></g></svg>