<svg id="Capa_1" enable-background="new 0 0 511.816 511.816" height="512" viewBox="0 0 511.816 511.816" width="512" xmlns="http://www.w3.org/2000/svg"><g><path d="m180.908 408.391h150v-90h-150zm45-60h60v30h-60z"/><path d="m300.908 243.391c0-24.814-20.186-45-45-45s-45 20.186-45 45v45h90z"/><path d="m420.908 158.307v-109.916h-90v30.89l-75-65.856-255.908 224.707 19.805 22.529 41.104-36.09v273.82h390v-273.82l41.104 36.09 19.805-22.529zm-60 280.084h-210v-150h30v-45c0-41.353 33.647-75 75-75s75 33.647 75 75v45h30z"/></g></svg>